<svg xmlns="http://www.w3.org/2000/svg" viewBox="0 0 720 500" width="720" height="500" role="img" aria-label="jz benchmark — each ball runs back and forth at a rate proportional to that engine's speed; jz is the 1.00× baseline, lower is faster">
  <rect width="720" height="500" rx="12" fill="#ffffff"/>

  <g font-family="-apple-system,BlinkMacSystemFont,'Segoe UI',Roboto,sans-serif">
    <rect x="174" y="43.5" width="476" height="3" rx="1.5" fill="#edf0f2"/>
    <line x1="174" y1="38" x2="174" y2="52" stroke="#ced4da" stroke-width="2"/>
    <line x1="650" y1="38" x2="650" y2="52" stroke="#ced4da" stroke-width="2"/>
    <text x="156" y="41" text-anchor="end" font-size="14" font-weight="700" fill="#000000">jz</text>
    <text x="156" y="56" text-anchor="end" font-size="10" fill="#aeb4ba">→ wasm</text>
    <text x="662" y="49" font-size="13" font-weight="700" fill="#000000">1.00×</text>
    <circle cx="182.0" cy="45" r="8" fill="#000000">
      <animate attributeName="cx" dur="1.6s" repeatCount="indefinite" calcMode="linear"
        keyTimes="0;0.5;1" values="182.0;642.0;182.0" begin="-0.00s"/>
    </circle>
  </g>
  <g font-family="-apple-system,BlinkMacSystemFont,'Segoe UI',Roboto,sans-serif">
    <rect x="174" y="93.5" width="476" height="3" rx="1.5" fill="#edf0f2"/>
    <line x1="174" y1="88" x2="174" y2="102" stroke="#ced4da" stroke-width="2"/>
    <line x1="650" y1="88" x2="650" y2="102" stroke="#ced4da" stroke-width="2"/>
    <text x="156" y="91" text-anchor="end" font-size="14" font-weight="500" fill="#343a40">Rust</text>
    <text x="156" y="106" text-anchor="end" font-size="10" fill="#aeb4ba">rustc -O3</text>
    <text x="662" y="99" font-size="13" font-weight="500" fill="#868e96">1.07×</text>
    <circle cx="182.0" cy="95" r="8" fill="#adb5bd">
      <animate attributeName="cx" dur="1.7111717105322697s" repeatCount="indefinite" calcMode="linear"
        keyTimes="0;0.5;1" values="182.0;642.0;182.0" begin="-0.41s"/>
    </circle>
  </g>
  <g font-family="-apple-system,BlinkMacSystemFont,'Segoe UI',Roboto,sans-serif">
    <rect x="174" y="143.5" width="476" height="3" rx="1.5" fill="#edf0f2"/>
    <line x1="174" y1="138" x2="174" y2="152" stroke="#ced4da" stroke-width="2"/>
    <line x1="650" y1="138" x2="650" y2="152" stroke="#ced4da" stroke-width="2"/>
    <text x="156" y="141" text-anchor="end" font-size="14" font-weight="500" fill="#343a40">Zig</text>
    <text x="156" y="156" text-anchor="end" font-size="10" fill="#aeb4ba">ReleaseFast</text>
    <text x="662" y="149" font-size="13" font-weight="500" fill="#868e96">1.31×</text>
    <circle cx="182.0" cy="145" r="8" fill="#adb5bd">
      <animate attributeName="cx" dur="2.097403438402887s" repeatCount="indefinite" calcMode="linear"
        keyTimes="0;0.5;1" values="182.0;642.0;182.0" begin="-0.82s"/>
    </circle>
  </g>
  <g font-family="-apple-system,BlinkMacSystemFont,'Segoe UI',Roboto,sans-serif">
    <rect x="174" y="193.5" width="476" height="3" rx="1.5" fill="#edf0f2"/>
    <line x1="174" y1="188" x2="174" y2="202" stroke="#ced4da" stroke-width="2"/>
    <line x1="650" y1="188" x2="650" y2="202" stroke="#ced4da" stroke-width="2"/>
    <text x="156" y="191" text-anchor="end" font-size="14" font-weight="500" fill="#343a40">Bun</text>
    <text x="156" y="206" text-anchor="end" font-size="10" fill="#aeb4ba">JSC</text>
    <text x="662" y="199" font-size="13" font-weight="500" fill="#868e96">1.51×</text>
    <circle cx="182.0" cy="195" r="8" fill="#adb5bd">
      <animate attributeName="cx" dur="2.4126551201460966s" repeatCount="indefinite" calcMode="linear"
        keyTimes="0;0.5;1" values="182.0;642.0;182.0" begin="-1.23s"/>
    </circle>
  </g>
  <g font-family="-apple-system,BlinkMacSystemFont,'Segoe UI',Roboto,sans-serif">
    <rect x="174" y="243.5" width="476" height="3" rx="1.5" fill="#edf0f2"/>
    <line x1="174" y1="238" x2="174" y2="252" stroke="#ced4da" stroke-width="2"/>
    <line x1="650" y1="238" x2="650" y2="252" stroke="#ced4da" stroke-width="2"/>
    <text x="156" y="241" text-anchor="end" font-size="14" font-weight="500" fill="#343a40">Go</text>
    <text x="156" y="256" text-anchor="end" font-size="10" fill="#aeb4ba">gc</text>
    <text x="662" y="249" font-size="13" font-weight="500" fill="#868e96">1.62×</text>
    <circle cx="182.0" cy="245" r="8" fill="#adb5bd">
      <animate attributeName="cx" dur="2.599256056991375s" repeatCount="indefinite" calcMode="linear"
        keyTimes="0;0.5;1" values="182.0;642.0;182.0" begin="-1.64s"/>
    </circle>
  </g>
  <g font-family="-apple-system,BlinkMacSystemFont,'Segoe UI',Roboto,sans-serif">
    <rect x="174" y="293.5" width="476" height="3" rx="1.5" fill="#edf0f2"/>
    <line x1="174" y1="288" x2="174" y2="302" stroke="#ced4da" stroke-width="2"/>
    <line x1="650" y1="288" x2="650" y2="302" stroke="#ced4da" stroke-width="2"/>
    <text x="156" y="291" text-anchor="end" font-size="14" font-weight="500" fill="#343a40">V8</text>
    <text x="156" y="306" text-anchor="end" font-size="10" fill="#aeb4ba">Node</text>
    <text x="662" y="299" font-size="13" font-weight="500" fill="#868e96">1.98×</text>
    <circle cx="182.0" cy="295" r="8" fill="#adb5bd">
      <animate attributeName="cx" dur="3.161748945741268s" repeatCount="indefinite" calcMode="linear"
        keyTimes="0;0.5;1" values="182.0;642.0;182.0" begin="-2.05s"/>
    </circle>
  </g>
  <g font-family="-apple-system,BlinkMacSystemFont,'Segoe UI',Roboto,sans-serif">
    <rect x="174" y="343.5" width="476" height="3" rx="1.5" fill="#edf0f2"/>
    <line x1="174" y1="338" x2="174" y2="352" stroke="#ced4da" stroke-width="2"/>
    <line x1="650" y1="338" x2="650" y2="352" stroke="#ced4da" stroke-width="2"/>
    <text x="156" y="341" text-anchor="end" font-size="14" font-weight="500" fill="#343a40">AssemblyScript</text>
    <text x="156" y="356" text-anchor="end" font-size="10" fill="#aeb4ba">asc -O3</text>
    <text x="662" y="349" font-size="13" font-weight="500" fill="#868e96">2.02×</text>
    <circle cx="182.0" cy="345" r="8" fill="#adb5bd">
      <animate attributeName="cx" dur="3.234040602137033s" repeatCount="indefinite" calcMode="linear"
        keyTimes="0;0.5;1" values="182.0;642.0;182.0" begin="-2.46s"/>
    </circle>
  </g>
  <g font-family="-apple-system,BlinkMacSystemFont,'Segoe UI',Roboto,sans-serif">
    <rect x="174" y="393.5" width="476" height="3" rx="1.5" fill="#edf0f2"/>
    <line x1="174" y1="388" x2="174" y2="402" stroke="#ced4da" stroke-width="2"/>
    <line x1="650" y1="388" x2="650" y2="402" stroke="#ced4da" stroke-width="2"/>
    <text x="156" y="391" text-anchor="end" font-size="14" font-weight="500" fill="#343a40">Porffor</text>
    <text x="156" y="406" text-anchor="end" font-size="10" fill="#aeb4ba">runs 3 / 13</text>
    <text x="662" y="399" font-size="13" font-weight="500" fill="#868e96">3.08×</text>
    <circle cx="182.0" cy="395" r="8" fill="#adb5bd">
      <animate attributeName="cx" dur="4.926330541139543s" repeatCount="indefinite" calcMode="linear"
        keyTimes="0;0.5;1" values="182.0;642.0;182.0" begin="-2.87s"/>
    </circle>
  </g>
  <g font-family="-apple-system,BlinkMacSystemFont,'Segoe UI',Roboto,sans-serif">
    <rect x="174" y="443.5" width="476" height="3" rx="1.5" fill="#edf0f2"/>
    <line x1="174" y1="438" x2="174" y2="452" stroke="#ced4da" stroke-width="2"/>
    <line x1="650" y1="438" x2="650" y2="452" stroke="#ced4da" stroke-width="2"/>
    <text x="156" y="441" text-anchor="end" font-size="14" font-weight="500" fill="#343a40">NumPy</text>
    <text x="156" y="456" text-anchor="end" font-size="10" fill="#aeb4ba">Python</text>
    <text x="662" y="449" font-size="13" font-weight="500" fill="#868e96">8.31×</text>
    <circle cx="182.0" cy="445" r="8" fill="#adb5bd">
      <animate attributeName="cx" dur="10s" repeatCount="indefinite" calcMode="linear"
        keyTimes="0;0.5;1" values="182.0;642.0;182.0" begin="-3.28s"/>
    </circle>
  </g>
</svg>
